<svg viewBox="0 0 256 256" fill="none" xmlns="http://www.w3.org/2000/svg">
<circle cx="128" cy="128" r="128" fill="#181818"/>
<path d="M128 160.308V194.923C84.6669 194.923 49.5385 159.795 49.5385 116.462C49.5385 73.1284 84.6669 38 128 38C99.9609 38 77.2308 60.7302 77.2308 88.7692C77.2308 104.535 84.4169 118.622 95.6924 127.934C95.6923 127.956 95.6923 127.978 95.6923 128C95.6923 145.843 110.157 160.308 128 160.308Z" fill="#44F1A6"/>
<path d="M95.6923 128H61.0769C61.0769 84.6669 96.2054 49.5385 139.538 49.5385C182.872 49.5385 218 84.6669 218 128C218 99.9609 195.27 77.2308 167.231 77.2308C151.465 77.2308 137.378 84.4169 128.066 95.6924C128.044 95.6923 128.022 95.6923 128 95.6923C110.157 95.6923 95.6923 110.157 95.6923 128Z" fill="#44F1A6"/>
<path d="M128 95.6923L128 61.0769C171.333 61.0769 206.462 96.2054 206.462 139.538C206.462 182.872 171.333 218 128 218C156.039 218 178.769 195.27 178.769 167.231C178.769 151.465 171.583 137.378 160.308 128.066C160.308 128.044 160.308 128.022 160.308 128C160.308 110.157 145.843 95.6923 128 95.6923Z" fill="#44F1A6"/>
<path d="M160.308 128H194.923C194.923 171.333 159.795 206.462 116.462 206.462C73.1284 206.462 38 171.333 38 128C38 156.039 60.7302 178.769 88.7692 178.769C104.535 178.769 118.622 171.583 127.934 160.308C127.956 160.308 127.978 160.308 128 160.308C145.843 160.308 160.308 145.843 160.308 128Z" fill="#44F1A6"/>
</svg>
