<svg viewBox="0 0 1280 283" fill="none" xmlns="http://www.w3.org/2000/svg">
<path d="M572.799 191.961C571.695 191.961 570.799 191.065 570.799 189.961V118.781C570.799 118.004 571.261 117.291 571.967 116.969C611.583 98.9163 640.134 110.904 641.829 135.48V189.961C641.829 191.065 640.933 191.961 639.829 191.961H624.146C623.041 191.961 622.146 191.065 622.146 189.961V135.48C622.146 126.353 609.274 122.858 592.111 125.773C591.165 125.933 590.482 126.761 590.482 127.721V189.961C590.482 191.065 589.587 191.961 588.482 191.961H572.799Z" fill="#44F1A6"/>
<path d="M1210.37 191.394C1209.27 191.394 1208.37 190.498 1208.37 189.394V81C1208.37 79.8954 1209.27 79 1210.37 79H1226.05C1227.16 79 1228.05 79.8954 1228.05 81V107.65C1228.05 108.939 1229.26 109.889 1230.52 109.631C1258.9 103.833 1278.02 114.938 1279.4 134.913V189.394C1279.4 190.498 1278.5 191.394 1277.4 191.394H1261.72C1260.61 191.394 1259.72 190.498 1259.72 189.394V134.913C1259.72 125.786 1246.85 122.29 1229.68 125.205C1228.74 125.366 1228.05 126.194 1228.05 127.154V189.394C1228.05 190.498 1227.16 191.394 1226.05 191.394H1210.37Z" fill="#44F1A6"/>
<path d="M531.491 189.964C531.491 191.068 530.596 191.964 529.491 191.964H514.174C513.069 191.964 512.174 191.068 512.174 189.964V117.952C512.174 117.124 512.684 116.381 513.458 116.088C527.304 110.853 536.212 109.091 551.53 108.211C552.673 108.146 553.636 109.057 553.636 110.201V122.929C553.636 124.083 552.658 124.995 551.505 124.94C543.505 124.56 538.922 125.165 532.776 127.404C531.999 127.687 531.491 128.431 531.491 129.258V189.964Z" fill="#44F1A6"/>
<path d="M1034.41 112.255C1035.22 112.524 1035.77 113.288 1035.77 114.139V125.954C1035.77 127.29 1034.49 128.249 1033.2 127.893C1006.27 120.458 991.361 124.82 992.253 152.494C993.106 178.938 1013.36 178.338 1033.16 172.483C1034.45 172.1 1035.77 173.062 1035.77 174.415V185.324C1035.77 186.13 1035.28 186.864 1034.53 187.163C1000.46 200.767 972.599 184.386 972.599 151.558C972.599 116.875 996.366 99.5576 1034.41 112.255Z" fill="#44F1A6"/>
<path fill-rule="evenodd" clip-rule="evenodd" d="M669.041 111.795C668.196 112.04 667.607 112.823 667.607 113.703V124.93C667.607 126.257 668.878 127.215 670.161 126.877C692.349 121.042 708.336 122.839 709.831 136.957C709.957 138.145 708.889 139.083 707.699 138.964C673.059 135.49 659.232 146.604 659.232 166.191C662.48 200.525 721.71 199.233 729.423 170.158C729.465 169.998 729.486 169.829 729.486 169.663V137.345C729.486 115.295 706.352 100.955 669.041 111.795ZM689.264 151.438C683.523 151.963 679.239 156.9 679.239 162.665C679.239 168.981 684.359 174.102 690.675 174.102H696.83C703.546 174.102 709.41 169.001 709.387 162.285C709.377 159.615 709.206 156.937 708.824 153.766C708.735 153.033 708.244 152.406 707.538 152.191C702.672 150.71 696.326 150.793 689.264 151.438Z" fill="#44F1A6"/>
<path fill-rule="evenodd" clip-rule="evenodd" d="M1056 111.795C1055.16 112.04 1054.57 112.823 1054.57 113.703V124.93C1054.57 126.257 1055.84 127.215 1057.12 126.877C1079.31 121.042 1095.3 122.839 1096.79 136.957C1096.92 138.145 1095.85 139.083 1094.66 138.964C1060.02 135.49 1046.2 146.604 1046.2 166.191C1049.44 200.525 1108.67 199.233 1116.39 170.158C1116.43 169.998 1116.45 169.829 1116.45 169.663V137.345C1116.45 115.295 1093.32 100.955 1056 111.795ZM1076.23 151.438C1070.49 151.963 1066.2 156.9 1066.2 162.665C1066.2 168.981 1071.32 174.102 1077.64 174.102H1083.79C1090.51 174.102 1096.37 169.001 1096.35 162.285C1096.34 159.615 1096.17 156.937 1095.79 153.766C1095.7 153.033 1095.21 152.406 1094.5 152.191C1089.64 150.71 1083.29 150.793 1076.23 151.438Z" fill="#44F1A6"/>
<path d="M367.246 87.8467C367.246 86.7421 368.141 85.8467 369.246 85.8467H384.546C385.651 85.8467 386.546 86.7421 386.546 87.8467V108.383C386.546 109.479 387.428 110.37 388.523 110.383L404.788 110.569C405.884 110.581 406.765 111.473 406.765 112.569V125.242C406.765 126.347 405.87 127.242 404.765 127.242H388.546C387.441 127.242 386.546 128.138 386.546 129.242V168.175C386.546 175.402 393.922 176.768 403.322 174.787C404.604 174.517 405.846 175.47 405.846 176.781V188.031C405.846 188.881 405.302 189.645 404.492 189.903C382.687 196.845 367.246 185.396 367.246 168.175V129.242C367.246 128.138 366.35 127.242 365.246 127.242H355C353.895 127.242 353 126.347 353 125.242V112.36C353 111.256 353.895 110.36 355 110.36H365.246C366.35 110.36 367.246 109.465 367.246 108.36V87.8467Z" fill="#44F1A6"/>
<path d="M1132.06 131.695C1132.06 108.948 1166.14 101.445 1183.92 114.489C1184.41 114.852 1184.69 115.433 1184.69 116.045V125.502C1184.69 127.128 1182.74 128.247 1181.21 127.699C1171.58 124.262 1150.99 123.265 1150.99 131.695C1150.99 144.621 1191.15 134.004 1191.15 169.086C1191.15 189.597 1159.2 199.757 1135.29 184.904C1134.71 184.548 1134.37 183.913 1134.37 183.238V171.826C1134.37 170.244 1136.14 169.262 1137.54 169.989C1150.85 176.877 1171.3 178.743 1171.3 167.24C1171.3 153.391 1132.06 164.009 1132.06 131.695Z" fill="#44F1A6"/>
<path fill-rule="evenodd" clip-rule="evenodd" d="M419.81 140.313C419.75 141.32 419.75 142.512 419.75 144.896V155.165C419.75 157.549 419.75 158.741 419.81 159.748C420.831 177.067 434.647 190.883 451.966 191.904C452.973 191.964 454.165 191.964 456.549 191.964C458.933 191.964 460.125 191.964 461.131 191.904C478.45 190.883 492.266 177.067 493.288 159.748C493.347 158.741 493.347 157.549 493.347 155.165V144.896C493.347 142.512 493.347 141.32 493.288 140.313C492.266 122.995 478.45 109.178 461.131 108.157C460.125 108.098 458.933 108.098 456.549 108.098C454.165 108.098 452.973 108.098 451.966 108.157C434.647 109.178 420.831 122.995 419.81 140.313ZM438.709 138.606C438.578 139.607 438.578 140.8 438.578 143.184V158.588C438.578 160.973 438.578 162.165 438.709 163.166C439.619 170.079 445.059 175.518 451.971 176.428C452.972 176.56 454.164 176.56 456.549 176.56C458.933 176.56 460.126 176.56 461.127 176.428C468.039 175.518 473.478 170.079 474.388 163.166C474.52 162.165 474.52 160.973 474.52 158.588V143.184C474.52 140.8 474.52 139.607 474.388 138.606C473.478 131.694 468.039 126.255 461.127 125.345C460.126 125.213 458.933 125.213 456.549 125.213C454.164 125.213 452.972 125.213 451.971 125.345C445.059 126.255 439.619 131.694 438.709 138.606Z" fill="#44F1A6"/>
<path fill-rule="evenodd" clip-rule="evenodd" d="M832.447 140.313C832.387 141.32 832.387 142.512 832.387 144.896V155.165C832.387 157.549 832.387 158.741 832.447 159.748C833.468 177.067 847.284 190.883 864.603 191.904C865.61 191.964 866.802 191.964 869.186 191.964C871.569 191.964 872.761 191.964 873.768 191.904C891.087 190.883 904.903 177.067 905.925 159.748C905.984 158.741 905.984 157.549 905.984 155.165V144.896C905.984 142.512 905.984 141.32 905.925 140.313C904.903 122.995 891.087 109.178 873.768 108.157C872.761 108.098 871.569 108.098 869.186 108.098C866.802 108.098 865.61 108.098 864.603 108.157C847.284 109.178 833.468 122.995 832.447 140.313ZM851.346 138.606C851.214 139.607 851.214 140.8 851.214 143.184V158.588C851.214 160.973 851.214 162.165 851.346 163.166C852.256 170.079 857.695 175.518 864.608 176.428C865.609 176.56 866.801 176.56 869.186 176.56C871.57 176.56 872.763 176.56 873.764 176.428C880.676 175.518 886.115 170.079 887.025 163.166C887.157 162.165 887.157 160.973 887.157 158.588V143.184C887.157 140.8 887.157 139.607 887.025 138.606C886.115 131.694 880.676 126.255 873.764 125.345C872.763 125.213 871.57 125.213 869.186 125.213C866.801 125.213 865.609 125.213 864.608 125.345C857.695 126.255 852.256 131.694 851.346 138.606Z" fill="#44F1A6"/>
<rect x="928" y="172" width="20" height="20" rx="2" fill="#44F1A6"/>
<path fill-rule="evenodd" clip-rule="evenodd" d="M811.56 79C812.665 79 813.56 79.8954 813.56 81V170.535C813.56 172.253 813.273 173.978 812.488 175.506C799.27 201.242 746.81 198.404 746.81 156.02C746.81 124.151 755.029 104.611 792.406 109.479C793.621 109.637 794.733 108.705 794.733 107.481V81C794.733 79.8954 795.629 79 796.733 79H811.56ZM795.589 130.346V166.866C795.589 168.637 794.676 170.311 793.12 171.156C774.361 181.351 766.458 167.333 765.637 151.741C763.79 116.654 795.589 121.789 795.589 130.346Z" fill="#44F1A6"/>
<path fill-rule="evenodd" clip-rule="evenodd" d="M128.001 1.5C26.2413 9.48114 -24.2606 149.836 72.3138 220.5C72.7269 220.851 73.1428 221.2 73.5615 221.544C42.1564 221.585 12.9674 203.373 0.520996 155.363C8.88199 256.312 149.165 305.515 214.316 212.261C215.649 210.833 216.942 209.366 218.194 207.864C218.622 238.448 202.121 268.801 155.014 281.168C258.894 265.321 299.495 129.533 206.331 62.0197L206.5 62C234.5 62 258.387 74.4999 277.669 127.253C264.339 21.1957 129.436 -20.9016 61.5353 72.0904C62.4143 41.4316 80.2511 11.7321 128.001 1.5ZM88.4889 142C88.4889 169.897 111.104 192.512 139.001 192.512C166.898 192.512 189.513 169.897 189.513 142C189.513 114.103 166.898 91.4882 139.001 91.4882C111.104 91.4882 88.4889 114.103 88.4889 142Z" fill="#44F1A6"/>
</svg>
