<svg width="1280" height="317" viewBox="0 0 1280 317" fill="none" xmlns="http://www.w3.org/2000/svg">
<path d="M1092.8 47.3983C1087.84 47.3983 1082.96 48.9806 1080.16 52.1453C1077.35 55.2588 1075.74 62.6995 1075.33 68.4672H1111.1C1111 62.6995 1108.41 55.2588 1105.5 52.1453C1102.59 48.9806 1097.75 47.3983 1092.8 47.3983ZM1098.09 119.521C1084.31 119.521 1073.54 117.718 1065.78 110.113C1058.02 102.508 1054.14 89.7377 1054.14 75.8032C1054.14 61.4604 1057.71 48.3843 1064.86 40.5749C1072.06 32.7144 1081.98 29.7842 1094.64 29.7842C1106.74 29.7842 1116.16 34.2295 1122.89 41.1202C1129.63 48.0108 1133 57.5302 1133 69.6782V83.0095H1075.8C1076.05 89.6449 1077.02 93.8257 1080.69 97.5518C1084.37 101.278 1092.52 102.141 1099.16 102.141C1104.31 102.141 1109.19 101.605 1113.78 100.533C1118.38 99.4612 1123.17 97.7513 1128.18 95.4033V113.472C1124.09 115.514 1119.73 117.02 1115.08 117.989C1110.44 119.01 1104.77 119.521 1098.09 119.521Z" fill="#44F1A6"/>
<path d="M527 113.5L495 31H517.5L538 91.5L557 31H578.893L542.5 129C536.5 143.5 522 159 499.5 149.5V132.5C511.5 140.5 521.5 131.5 527 113.5Z" fill="#44F1A6"/>
<path d="M237 31H213.5L248.5 118.5H270.5L304 31H282L260 96H258.5L237 31Z" fill="#44F1A6"/>
<path d="M128 119H107.5V39C123.66 32.7794 133.332 30.9193 151.5 30V48C140.944 47.333 135.816 47.9814 128 51V119Z" fill="#44F1A6"/>
<path d="M1175.5 119H1155V39C1171.16 32.7794 1180.83 30.9193 1199 30V48C1188.44 47.333 1183.32 47.9814 1175.5 51V119Z" fill="#44F1A6"/>
<path d="M172 0H194V20H172V0Z" fill="#44F1A6"/>
<path d="M172 31H194V119H172V31Z" fill="#44F1A6"/>
<path d="M477.5 34.9981V51.9981C447 42.9995 430.016 46.9995 431 77.4982C431.952 106.999 455.5 104.999 477.5 97.9981V113.998C440.5 129.5 410 112 410 76.4982C410 38.9997 436 20.4995 477.5 34.9981Z" fill="#44F1A6"/>
<path fill-rule="evenodd" clip-rule="evenodd" d="M324.5 34.4992V50.9992C351 43.5 370 45.5 370 63.4992C331 59 315.5 71 315.5 92.4992C319 129.5 383 128 391 96.4992V61.4992C391 37.5002 365.5 22 324.5 34.4992ZM347.774 76.6444C341.605 77.2083 337 82.5141 337 88.7094C337 95.4973 342.503 101 349.291 101H355.905C363.122 101 369.425 95.518 369.399 88.3007C369.388 85.0791 369.157 81.8464 368.633 77.8668C363.265 75.8507 355.968 75.8954 347.774 76.6444Z" fill="#44F1A6"/>
<path fill-rule="evenodd" clip-rule="evenodd" d="M828 34.4992V50.9992C854.5 43.5 873.5 45.5 873.5 63.4992C834.5 59 819 71 819 92.4992C822.5 129.5 886.5 128 894.5 96.4992V61.4992C894.5 37.5002 869 22 828 34.4992ZM851.274 76.6444C845.105 77.2083 840.5 82.5141 840.5 88.7094C840.5 95.4973 846.003 101 852.791 101H859.405C866.622 101 872.925 95.518 872.899 88.3007C872.888 85.0791 872.657 81.8464 872.133 77.8668C866.765 75.8507 859.468 75.8954 851.274 76.6444Z" fill="#44F1A6"/>
<path fill-rule="evenodd" clip-rule="evenodd" d="M0 119H20.5V80H49.75C71.151 80 88.5 62.651 88.5 41.25C88.5 19.849 71.151 2.5 49.75 2.5H0V119ZM46.5 21H21V62H46.5C57.8218 62 67 52.8218 67 41.5C67 30.1782 57.8218 21 46.5 21Z" fill="#44F1A6"/>
<path d="M923 5H944V31.5L966 31.75V49.75H944V94C944 102.5 953.5 103.5 965 100.5V117C940.5 125.5 923 113 923 94V49.75H907.5V31.5H923V5Z" fill="#44F1A6"/>
<path d="M995.5 5H1016.5V31.5L1038.5 31.75V49.75H1016.5V94C1016.5 102.5 1026 103.5 1037.5 100.5V117C1013 125.5 995.5 113 995.5 94V49.75H980V31.5H995.5V5Z" fill="#44F1A6"/>
<path d="M1215 55C1215 30.001 1253 22.0016 1272 37V52.501C1265 47.5025 1235.5 44.5005 1235.5 55C1235.5 69.001 1279 57.501 1279 95.5C1279 118.001 1243.5 129.001 1217.5 112V94.5C1231.5 103.5 1257.5 107 1257.5 93.5C1257.5 78.5005 1215 90.0005 1215 55Z" fill="#44F1A6"/>
<path d="M663 118.999V39.9993C678 30.4998 704 23.9994 728.5 36.9993C758.5 21.5 797.5 30.0003 797.5 62.9993V118.999H775.5V62.9993C775.5 46.5 762.5 46.5 738 49C738 49.5 738.189 50.8273 738.5 51.5C740.066 54.8826 741 57.9952 741 62.9993V118.999H719.5V62.9993C719.5 49.9993 709 44.4993 684.5 49.9993V118.999H663Z" fill="#44F1A6"/>
<path d="M495.5 315.999V272.499C519 261.5 536 268.5 537 282.999V315.999H525.5V282.999C525.5 277.499 517.5 275.5 507 277.499V315.999H495.5Z" fill="#44F1A6"/>
<path d="M861 315.668V250H872.5V268.213C889.874 264.141 901.672 270.662 902.5 282.668V315.668H891V282.668C891 277.168 883 275.168 872.5 277.168V315.668H861Z" fill="#44F1A6"/>
<path d="M474.287 316H463V271.955C471.897 268.53 477.222 267.506 487.225 267V276.91C481.413 276.543 478.59 276.9 474.287 278.562V316Z" fill="#44F1A6"/>
<path d="M761.91 269.7V278.996C745.232 274.075 735.945 276.262 736.483 292.939C737.003 309.071 749.88 307.977 761.91 304.149V312.898C741.678 321.374 725 311.805 725 292.393C725 271.888 739.217 261.772 761.91 269.7Z" fill="#44F1A6"/>
<path fill-rule="evenodd" clip-rule="evenodd" d="M550.893 269.409V278.38C565.3 274.303 575.63 275.39 575.63 285.176C554.427 282.73 546 289.254 546 300.942C547.903 321.058 582.698 320.243 587.047 303.117V284.088C587.047 271.041 573.183 262.614 550.893 269.409ZM563.547 292.323C560.192 292.629 557.689 295.514 557.689 298.882C557.689 302.572 560.68 305.564 564.371 305.564H567.967C571.891 305.564 575.317 302.584 575.303 298.66C575.297 296.908 575.172 295.151 574.886 292.987C571.968 291.891 568.001 291.915 563.547 292.323Z" fill="#44F1A6"/>
<path fill-rule="evenodd" clip-rule="evenodd" d="M772.893 269.409V278.38C787.3 274.303 797.63 275.39 797.63 285.176C776.427 282.73 768 289.254 768 300.942C769.903 321.058 804.698 320.243 809.047 303.117V284.088C809.047 271.041 795.183 262.614 772.893 269.409ZM785.547 292.323C782.192 292.629 779.689 295.514 779.689 298.882C779.689 302.572 782.68 305.564 786.371 305.564H789.967C793.891 305.564 797.317 302.584 797.303 298.66C797.297 296.908 797.172 295.151 796.886 292.987C793.968 291.891 790.001 291.915 785.547 292.323Z" fill="#44F1A6"/>
<path d="M378.323 254H389.6V268.322L401.413 268.458V278.186H389.6V302.102C389.6 306.696 394.701 307.236 400.876 305.615V314.532C387.72 319.126 378.323 312.371 378.323 302.102V278.186H370V268.322H378.323V254Z" fill="#44F1A6"/>
<path d="M817 280.787C817 267.302 837.498 262.987 847.747 271.077V279.439C843.971 276.743 828.058 275.123 828.058 280.787C828.058 288.339 851.523 282.136 851.523 302.633C851.523 314.771 832.374 320.705 818.349 311.534V302.094C825.9 306.949 839.925 308.837 839.925 301.555C839.925 293.464 817 299.667 817 280.787Z" fill="#44F1A6"/>
<path fill-rule="evenodd" clip-rule="evenodd" d="M409.035 285.823C409 286.411 409 287.107 409 288.5V294.5C409 295.893 409 296.589 409.035 297.177C409.631 307.296 417.704 315.369 427.823 315.965C428.411 316 429.107 316 430.5 316C431.893 316 432.589 316 433.177 315.965C443.296 315.369 451.369 307.296 451.965 297.177C452 296.589 452 295.893 452 294.5V288.5C452 287.107 452 286.411 451.965 285.823C451.369 275.704 443.296 267.631 433.177 267.035C432.589 267 431.893 267 430.5 267C429.107 267 428.411 267 427.823 267.035C417.704 267.631 409.631 275.704 409.035 285.823ZM420.077 284.825C420 285.41 420 286.107 420 287.5V296.5C420 297.893 420 298.59 420.077 299.175C420.609 303.213 423.787 306.391 427.825 306.923C428.41 307 429.107 307 430.5 307C431.893 307 432.59 307 433.175 306.923C437.213 306.391 440.391 303.213 440.923 299.175C441 298.59 441 297.893 441 296.5V287.5C441 286.107 441 285.41 440.923 284.825C440.391 280.787 437.213 277.609 433.175 277.077C432.59 277 431.893 277 430.5 277C429.107 277 428.41 277 427.825 277.077C423.787 277.609 420.609 280.787 420.077 284.825Z" fill="#44F1A6"/>
<path fill-rule="evenodd" clip-rule="evenodd" d="M646.035 285.823C646 286.411 646 287.107 646 288.5V294.5C646 295.893 646 296.589 646.035 297.177C646.631 307.296 654.704 315.369 664.823 315.965C665.411 316 666.107 316 667.5 316C668.893 316 669.589 316 670.177 315.965C680.296 315.369 688.369 307.296 688.965 297.177C689 296.589 689 295.893 689 294.5V288.5C689 287.107 689 286.411 688.965 285.823C688.369 275.704 680.296 267.631 670.177 267.035C669.589 267 668.893 267 667.5 267C666.107 267 665.411 267 664.823 267.035C654.704 267.631 646.631 275.704 646.035 285.823ZM657.077 284.825C657 285.41 657 286.107 657 287.5V296.5C657 297.893 657 298.59 657.077 299.175C657.609 303.213 660.787 306.391 664.825 306.923C665.41 307 666.107 307 667.5 307C668.893 307 669.59 307 670.175 306.923C674.213 306.391 677.391 303.213 677.923 299.175C678 298.59 678 297.893 678 296.5V287.5C678 286.107 678 285.41 677.923 284.825C677.391 280.787 674.213 277.609 670.175 277.077C669.59 277 668.893 277 667.5 277C666.107 277 665.41 277 664.825 277.077C660.787 277.609 657.609 280.787 657.077 284.825Z" fill="#44F1A6"/>
<rect x="700" y="304" width="12" height="12" fill="#44F1A6"/>
<path fill-rule="evenodd" clip-rule="evenodd" d="M635 250V303.481C635 304.485 634.832 305.492 634.373 306.385C626.651 321.422 596 319.764 596 295C596 276 601 264.5 624 268V250H635ZM624.5 280V301.337C624.5 302.372 623.966 303.35 623.058 303.844C612.097 309.8 607.479 301.61 607 292.5C605.921 272 624.5 275 624.5 280Z" fill="#44F1A6"/>
</svg>
